<svg xmlns="http://www.w3.org/2000/svg" width="38" height="38" viewBox="0 0 38 38" fill="none">
<path fill-rule="evenodd" clip-rule="evenodd" d="M15.042 4.7474C9.35806 4.7474 4.75033 9.35513 4.75033 15.0391C4.75033 20.723 9.35806 25.3307 15.042 25.3307C20.7259 25.3307 25.3337 20.723 25.3337 15.0391C25.3337 9.35513 20.7259 4.7474 15.042 4.7474ZM3.16699 15.0391C3.16699 8.48068 8.48361 3.16406 15.042 3.16406C21.6004 3.16406 26.917 8.48068 26.917 15.0391C26.917 18.034 25.8083 20.77 23.9789 22.8589L34.5991 33.4791C34.9082 33.7882 34.9082 34.2895 34.5991 34.5987C34.2899 34.9078 33.7887 34.9078 33.4795 34.5987L22.8592 23.9784C20.7705 25.8063 18.0356 26.9141 15.042 26.9141C8.48361 26.9141 3.16699 21.5974 3.16699 15.0391Z" fill="#555555"/>
</svg>