<svg xmlns="http://www.w3.org/2000/svg" width="52" height="52" viewBox="0 0 52 52" fill="none">
<path d="M44.4163 38.9077C33.6468 49.6773 18.3526 49.6773 7.58301 38.9077C10.09 36.4007 14.8475 33.6216 21.2152 31.0746V25.9804C21.2152 25.9804 18.6681 25.0864 18.6681 19.6128C16.1211 19.6128 16.1211 14.5187 18.6681 14.5187C18.6681 13.7851 14.4018 7.05325 19.7659 8.15103C21.0394 3.05692 33.5939 3.05692 34.8674 8.15103C35.6264 11.1846 33.7263 13.9812 33.7263 14.5187C36.1944 14.5187 35.5194 19.6128 33.7467 19.6128C33.7467 25.0864 31.4034 25.9804 31.4034 25.9804V31.0746C37.771 33.6216 41.1669 35.7471 44.4163 38.9077Z" stroke="#555555" stroke-width="2.20833" stroke-linecap="round" stroke-linejoin="round"/>
</svg>